<?xml version="1.0" encoding="utf-8"?>
<!-- Generator: Adobe Illustrator 25.4.1, SVG Export Plug-In . SVG Version: 6.00 Build 0)  -->
<svg version="1.1" id="Layer_1" xmlns="http://www.w3.org/2000/svg" xmlns:xlink="http://www.w3.org/1999/xlink" x="0px" y="0px"
	 viewBox="0 0 700 700" style="enable-background:new 0 0 700 700;" xml:space="preserve">
<style type="text/css">
	.st0{fill:#FFFFFF;}
</style>
<symbol  id="a" viewBox="-8.2 -8 16.4 16.1">
	<path d="M8.2-0.1v1.4H-3.2c0.1,1.1,0.5,2,1.2,2.6c0.7,0.6,1.7,0.9,3,0.9c1,0,2.1-0.1,3.2-0.5C5.2,4,6.3,3.6,7.5,2.9v3.8
		C6.3,7.1,5.2,7.5,4,7.7C2.9,7.9,1.7,8,0.5,8c-2.8,0-4.9-0.7-6.5-2.1C-7.5,4.5-8.2,2.6-8.2,0c0-2.5,0.8-4.5,2.3-5.9
		C-4.4-7.3-2.4-8,0.3-8C2.7-8,4.6-7.3,6-5.9C7.5-4.4,8.2-2.5,8.2-0.1L8.2-0.1z M3.2-1.7c0-0.9-0.3-1.7-0.8-2.2
		C1.8-4.5,1.1-4.8,0.3-4.8c-0.9,0-1.7,0.3-2.3,0.8s-1,1.3-1.1,2.3H3.2z"/>
</symbol>
<symbol  id="b" viewBox="-5.7 -7.8 11.4 15.7">
	<path d="M5.7-3.3C5.2-3.5,4.8-3.6,4.4-3.7C4-3.8,3.6-3.9,3.1-3.9c-1.3,0-2.2,0.4-2.9,1.2c-0.7,0.8-1,2-1,3.5v7.1h-4.9V-7.5h4.9V-5
		c0.6-1,1.3-1.7,2.2-2.2c0.8-0.5,1.8-0.7,2.9-0.7c0.2,0,0.3,0,0.5,0c0.2,0,0.5,0,0.8,0.1L5.7-3.3z"/>
</symbol>
<path class="st0" d="M378,109c-13.7,5.1-22.2,19.4-22.2,37.7c0,13.3,3,21.9,10,27.9c7.6,6.6,15.5,7.4,25.4,2.6
	c9.7-4.8,15.3-12.4,18.6-25.1C416.7,125.1,399.2,101.4,378,109L378,109z"/>
<path class="st0" d="M354.5,200.4c-16.8,3.5-35.2,17.6-51.8,40c-11.8,15.7-16.9,26.7-14.6,30.9c0.9,1.7,2.6,3,3.8,3
	c1.1,0,7.2-7.8,13.7-17.5c6.5-9.5,13.7-19,16.1-21.1c9.1-7.7,16.2-2.6,12.8,9.5c-0.7,3.2-8.9,30.2-17.8,60
	c-19.3,64.1-23.2,81-23.4,99.6c0,11.6,0.4,14.3,3.5,19c7,11.3,22.2,12.7,40.4,3.8c24.9-12.4,60.6-55.1,59.1-70.8
	c-0.3-3-1.2-4.8-2.5-4.8c-2.3,0-4.4,2.6-20.1,24.3c-13.6,18.7-22.3,21.8-22.3,7.7c0-3.3,7.8-33.8,17.3-67.9
	c9.5-34.1,18.1-66.2,19-71.6c2.3-12.5,1.1-27.5-2.7-33.8C379.9,201.6,368.2,197.7,354.5,200.4L354.5,200.4z"/>
<path class="st0" d="M350,531.6C211.3,531.6,98.4,418.7,98.4,280C98.4,141.3,211.3,28.4,350,28.4c138.7,0,251.6,112.8,251.6,251.6
	S488.7,531.6,350,531.6z M350,46.5c-128.7,0-233.5,104.7-233.5,233.5c0,128.7,104.7,233.5,233.5,233.5
	c128.7,0,233.5-104.7,233.5-233.5C583.5,151.2,478.7,46.5,350,46.5L350,46.5z"/>
<g>
	<defs>
		<rect id="SVGID_1_" x="454.6" y="644" width="700" height="700"/>
	</defs>
	<clipPath id="SVGID_00000020360349070979380920000010680042871518293638_">
		<use xlink:href="#SVGID_1_"  style="overflow:visible;"/>
	</clipPath>
	<g style="clip-path:url(#SVGID_00000020360349070979380920000010680042871518293638_);">
		
			<use xlink:href="#a"  width="16.4" height="16.1" x="-8.2" y="-8" transform="matrix(1 0 0 1 464.0121 636.3515)" style="overflow:visible;"/>
	</g>
</g>
<g>
	<defs>
		<rect id="SVGID_00000099622948864182008890000005021376276765219737_" x="473.6" y="644" width="700" height="700"/>
	</defs>
	<clipPath id="SVGID_00000152958139023455659330000015782829283034258076_">
		<use xlink:href="#SVGID_00000099622948864182008890000005021376276765219737_"  style="overflow:visible;"/>
	</clipPath>
	<g style="clip-path:url(#SVGID_00000152958139023455659330000015782829283034258076_);">
		
			<use xlink:href="#b"  width="11.4" height="15.7" x="-5.7" y="-7.8" transform="matrix(1 0 0 1 481.6286 636.1561)" style="overflow:visible;"/>
	</g>
</g>
</svg>
