<?xml version="1.0" encoding="utf-8"?>
<!-- Generator: Adobe Illustrator 25.4.1, SVG Export Plug-In . SVG Version: 6.00 Build 0)  -->
<svg version="1.1" id="Layer_1" xmlns="http://www.w3.org/2000/svg" xmlns:xlink="http://www.w3.org/1999/xlink" x="0px" y="0px"
	 viewBox="0 0 700 669.6" style="enable-background:new 0 0 700 669.6;" xml:space="preserve">
<style type="text/css">
	.st0{fill:#FFFFFF;}
</style>
<g>
	
		<image style="overflow:visible;opacity:0.75;" width="719" height="683" xlink:href="22EA0C803373F34E.png"  transform="matrix(1 0 0 1 -9.9999 -2.3614)">
	</image>
	<g>
		<path class="st0" d="M606.2,18.9C519.2,32.2,433.9,59.7,361,110.4V567c76.4-40.9,158.1-68.4,245.2-72.9V18.9z M345,639
			c-98.6-48-202.6-79.1-311.8-81.7c-6.2,0-11.5-5.3-11.5-10.7V90.8L11,90v486.8c118.2,4.4,231,34.6,338.5,82.6
			c108.4-48,220.3-78.2,338.5-82.6V90l-10.7,0.9v455.8c0,5.3-4.4,10.7-10.7,10.7C557.4,559.9,453.4,591,354.8,639
			C352.1,640.8,347.7,640.8,345,639L345,639z M70.5,56.2l-25.8-4.4V535c106.6,4.4,208.8,34.6,304.7,81.7
			c96.8-47.1,198.1-77.3,305.6-81.7V51.7l-25.8,4.4v448.6c0,6.2-5.3,10.7-11.5,11.5c-96,1.8-178.6,33.8-262.1,79.1
			c-7.1,5.3-15.1-1.8-21.3-5.3c-78.2-42.6-162.6-72-252.3-73.7c-6.2-0.9-11.5-5.3-11.5-11.5L70.5,56.2L70.5,56.2z M93.6,18.9v475.3
			c87.1,4.4,168.8,32,245.2,72.9V110.4C265.1,59.7,180.7,32.2,93.6,18.9L93.6,18.9z"/>
	</g>
</g>
</svg>
